<svg width="267" height="281" viewBox="0 0 267 281" fill="none" xmlns="http://www.w3.org/2000/svg">
<path d="M267 136.5C267 209.125 207.23 268 133.5 268C59.77 268 0 209.125 0 136.5C0 63.8746 59.77 5 133.5 5C207.23 5 267 63.8746 267 136.5Z" fill="#E16773"/>
<path d="M267 136.5C267 209.125 207.23 268 133.5 268C59.77 268 0 209.125 0 136.5C0 63.8746 59.77 5 133.5 5C207.23 5 267 63.8746 267 136.5Z" stroke="black"/>
<path fill-rule="evenodd" clip-rule="evenodd" d="M176.587 72C179.971 71.999 183.23 73.2186 185.712 75.4144C188.193 77.6102 189.713 80.6198 189.966 83.84L190 84.8V187.2C190.001 190.429 188.723 193.54 186.422 195.908C184.121 198.275 180.968 199.726 177.593 199.968L176.587 200H96.1115C92.7277 200.001 89.4685 198.781 86.9873 196.586C84.506 194.39 82.9862 191.38 82.7324 188.16L82.6989 187.2V180.8C80.9896 180.798 79.3455 180.174 78.1026 179.054C76.8597 177.934 76.1117 176.404 76.0115 174.775C75.9114 173.147 76.4665 171.543 77.5636 170.292C78.6607 169.041 80.2169 168.237 81.9142 168.045L82.6989 168V155.2C80.9896 155.198 79.3455 154.574 78.1026 153.454C76.8597 152.334 76.1117 150.804 76.0115 149.175C75.9114 147.547 76.4665 145.943 77.5636 144.692C78.6607 143.441 80.2169 142.637 81.9142 142.445L82.6989 142.4V129.6C80.9896 129.598 79.3455 128.974 78.1026 127.854C76.8597 126.734 76.1117 125.204 76.0115 123.575C75.9114 121.947 76.4665 120.343 77.5636 119.092C78.6607 117.841 80.2169 117.037 81.9142 116.845L82.6989 116.8V104C80.9896 103.998 79.3455 103.374 78.1026 102.254C76.8597 101.134 76.1117 99.6035 76.0115 97.9751C75.9114 96.3466 76.4665 94.7432 77.5636 93.4923C78.6607 92.2414 80.2169 91.4375 81.9142 91.2448L82.6989 91.2V84.8C82.6978 81.5707 83.9758 78.4604 86.2767 76.0925C88.5776 73.7246 91.7313 72.2742 95.1056 72.032L96.1115 72H176.587ZM176.587 84.8H96.1115V187.2H176.587V84.8ZM159.822 97.6C162.322 97.6001 164.733 98.4891 166.584 100.094C168.435 101.698 169.594 103.903 169.834 106.278L169.881 107.2V120C169.881 122.386 168.949 124.687 167.268 126.454C165.587 128.22 163.276 129.326 160.787 129.555L159.822 129.6H112.877C110.377 129.6 107.966 128.711 106.115 127.106C104.263 125.502 103.105 123.297 102.865 120.922L102.818 120V107.2C102.818 104.814 103.749 102.513 105.431 100.746C107.112 98.9795 109.422 97.8739 111.912 97.6448L112.877 97.6H159.822ZM156.468 110.4H116.23V116.8H156.468V110.4Z" fill="#F0DB6D"/>
<path d="M96.318 57.4372C93.6045 59.0038 91.0233 59.6665 88.5746 59.4252C86.1259 59.1839 83.883 58.2657 81.8458 56.6706C79.792 55.0466 78.0484 52.9933 76.6151 50.5107C75.4651 48.5188 74.647 46.3353 74.161 43.9601C73.6583 41.556 73.5442 39.1585 73.8189 36.7675C74.1057 34.331 74.8379 32.0992 76.0155 30.0722C77.2053 27.9997 78.8972 26.33 81.0911 25.0634C81.8416 24.63 82.7993 24.2888 83.9642 24.0397C85.1412 23.745 86.3583 23.6197 87.6153 23.6637C88.8846 23.6622 90.0474 23.8762 91.1036 24.3056C92.172 24.6895 92.9729 25.3433 93.5062 26.2671C93.8229 26.8155 93.8586 27.4107 93.6134 28.0527C93.3971 28.678 93.0002 29.1573 92.4229 29.4906C91.7878 29.8573 91.1682 29.9841 90.564 29.871C89.9599 29.7579 89.3307 29.6015 88.6766 29.4019C88.0513 29.1855 87.35 29.0708 86.5727 29.0577C85.7953 29.0446 84.9014 29.3298 83.8911 29.9131C82.4188 30.7631 81.3015 31.9278 80.5391 33.4072C79.7766 34.8867 79.3291 36.5115 79.1964 38.2816C79.0759 40.0063 79.2014 41.7236 79.5728 43.4337C79.9276 45.1148 80.4717 46.5905 81.205 47.8607C82.105 49.4195 83.1837 50.7212 84.4411 51.7658C85.6819 52.7815 87.0696 53.3852 88.6044 53.5768C90.1225 53.7395 91.7187 53.3376 93.393 52.3709C95.0962 51.3876 96.244 50.109 96.8365 48.5353C97.4579 46.9449 97.7872 45.2152 97.8243 43.3462C97.8109 43.123 97.7664 42.8792 97.6908 42.615C97.6152 42.3507 97.4752 42.0081 97.2707 41.5873C97.1219 41.5963 96.942 41.5847 96.731 41.5525L90.1925 45.3275C89.442 45.7609 88.7085 45.8572 87.9922 45.6164C87.3047 45.359 86.736 44.8406 86.286 44.0612C85.9026 43.3972 85.8252 42.7298 86.0538 42.059C86.2945 41.3427 86.7713 40.7018 87.484 40.1363L90.0388 38.6613C90.9626 38.1279 91.9691 37.6046 93.0583 37.0912C94.1309 36.5489 95.2207 36.1699 96.3278 35.9541C97.4349 35.7383 98.4938 35.839 99.5044 36.2562C100.498 36.6446 101.387 37.5172 102.17 38.8739C103.104 40.4905 103.595 42.2083 103.645 44.0273C103.723 45.8296 103.456 47.6003 102.843 49.3396C102.214 51.0499 101.33 52.6188 100.191 54.0461C99.0525 55.4735 97.7614 56.6038 96.318 57.4372Z" fill="black"/>
<path d="M117.799 48.0388C117.22 48.1941 116.733 48.1174 116.34 47.8087C115.946 47.4999 115.633 47.1009 115.398 46.6117C115.155 46.0902 114.929 45.6331 114.72 45.2404L113.762 41.6665C113.279 39.8634 112.872 38.0227 112.541 36.1443C112.202 34.2337 111.795 32.393 111.321 30.6221C111.096 29.785 110.8 29.0016 110.432 28.272C110.064 27.5424 109.772 26.7751 109.556 25.9702L109.207 24.6662C109.335 24.1142 109.578 23.6695 109.937 23.3319C110.327 22.9858 110.764 22.748 111.247 22.6186C111.955 22.4288 112.542 22.4957 113.009 22.8194C113.466 23.1108 113.833 23.513 114.108 24.0258C114.416 24.5301 114.695 24.9903 114.944 25.4066C115.185 25.7906 115.459 25.976 115.766 25.9628C116.536 25.1008 117.262 24.2679 117.944 23.4641C118.658 22.6516 119.434 21.9431 120.273 21.3388C121.135 20.6936 122.146 20.2157 123.305 19.9051C123.885 19.7498 124.531 19.7147 125.244 19.7997C125.989 19.8761 126.668 20.0911 127.28 20.4447C127.884 20.766 128.276 21.2648 128.458 21.9409C128.682 22.7781 128.508 23.4804 127.935 24.0479C127.395 24.6069 126.835 24.964 126.255 25.1193C125.869 25.2228 125.477 25.2415 125.08 25.1754C124.682 25.1093 124.291 25.128 123.904 25.2316C122.777 25.5335 121.792 26.108 120.95 26.955C120.13 27.7612 119.454 28.6499 118.92 29.621C118.387 30.5922 117.985 31.4762 117.716 32.2732C117.665 32.5975 117.697 33.1063 117.814 33.7997C117.931 34.4931 118.09 35.2788 118.291 36.1568C118.483 37.0025 118.67 37.8322 118.854 38.6458C119.07 39.4507 119.239 40.1472 119.362 40.7354C119.615 41.8066 119.778 42.8671 119.852 43.917C119.95 44.926 119.86 45.8129 119.582 46.5777C119.295 47.3102 118.701 47.7973 117.799 48.0388Z" fill="black"/>
<path d="M154.599 19.8519C153.633 19.5931 152.878 19.0629 152.334 18.2613C151.789 17.4598 151.677 16.4633 151.996 15.272C152.315 14.0807 152.958 13.3557 153.924 13.0971C154.891 12.8384 155.809 12.8256 156.678 13.0585C157.676 13.326 158.432 13.8562 158.944 14.6491C159.488 15.4506 159.597 16.4632 159.269 17.6867C158.958 18.8458 158.32 19.5547 157.353 19.8133C156.419 20.0806 155.501 20.0935 154.599 19.8519ZM144.89 48.3603C144.278 48.1964 143.897 47.7493 143.748 47.0191C143.599 46.2889 143.53 45.5802 143.541 44.8931L145.211 38.6629C145.254 38.5019 145.398 38.092 145.644 37.4331C145.93 36.7506 146.247 35.9555 146.593 35.0476C146.981 34.1162 147.34 33.2288 147.669 32.3853C148.04 31.5183 148.326 30.8359 148.528 30.3379C148.797 29.7199 149.1 29.0417 149.436 28.3035C149.804 27.5739 150.259 26.9711 150.8 26.495C151.342 26.019 151.967 25.8759 152.675 26.0657C153.448 26.2728 153.944 26.6126 154.162 27.0853C154.421 27.5343 154.51 28.0412 154.428 28.6058C154.345 29.1704 154.227 29.7425 154.071 30.322L153.618 32.0124C153.601 32.0768 153.546 32.2174 153.454 32.4341C153.37 32.6187 153.261 32.8311 153.128 33.0715C152.6 34.138 152.199 34.9277 151.923 35.4405C151.689 35.9298 151.487 36.359 151.32 36.7281C151.192 37.0736 151.043 37.5684 150.87 38.2123C150.767 38.5987 150.637 39.0817 150.482 39.6612C150.359 40.2494 150.172 41.0104 149.922 41.9441C149.81 42.3627 149.714 42.7856 149.634 43.2127C149.562 43.6077 149.466 44.0306 149.346 44.4814C149.216 44.9644 149.03 45.4666 148.787 45.9881C148.442 46.7585 147.954 47.4214 147.322 47.9767C146.699 48.4999 145.888 48.6278 144.89 48.3603Z" fill="black"/>
<path d="M163.482 47.5187C162.818 47.2088 162.327 46.7226 162.011 46.0602C161.739 45.3816 161.758 44.71 162.068 44.0454C162.532 43.0485 163.013 42.0958 163.511 41.1875C164.038 40.2932 164.527 39.3627 164.978 38.396L166.372 35.4052C166.95 34.1666 167.475 32.9219 167.948 31.6712C168.465 30.4044 168.839 29.0894 169.071 27.726C169.119 27.3071 169.189 26.8802 169.282 26.4452C169.418 25.9941 169.585 25.557 169.783 25.1341C170.064 24.5299 170.497 23.9961 171.081 23.5328C171.679 23.0393 172.371 22.9756 173.156 23.3419C173.791 23.6377 174.191 24.1189 174.359 24.7854C174.54 25.4217 174.575 26.1365 174.462 26.93C174.364 27.6932 174.198 28.4434 173.964 29.1805C173.775 29.9015 173.62 30.5097 173.5 31.0051C173.377 31.426 173.27 31.8912 173.18 32.4007C173.089 32.9102 172.946 33.3764 172.748 33.7994C172.734 33.8296 172.722 33.9343 172.712 34.1135C172.702 34.2927 172.692 34.472 172.682 34.6512C173.399 34.1395 174.189 33.5885 175.053 32.9982C175.961 32.3918 176.886 31.867 177.828 31.4237C178.815 30.9642 179.799 30.6689 180.779 30.5378C181.79 30.4207 182.764 30.5805 183.7 31.0172C184.667 31.468 185.279 32.0477 185.537 32.7565C185.84 33.4491 185.98 34.2133 185.958 35.049C185.95 35.8545 185.942 36.66 185.934 37.4655C185.914 37.824 185.842 38.1764 185.717 38.5228C185.607 38.839 185.534 39.1914 185.5 39.5801L186.337 39.0875C187.335 38.5233 188.445 37.9189 189.665 37.2741C190.929 36.6132 192.214 36.1457 193.519 35.8714C194.838 35.567 196.101 35.6965 197.31 36.26C198.276 36.7107 198.958 37.3781 199.355 38.262C199.797 39.1298 200.024 40.1004 200.039 41.1737C200.083 42.2611 199.993 43.3224 199.768 44.3575C199.543 45.3926 199.247 46.3029 198.881 47.0884L194.401 56.6952C194.19 57.1484 193.882 57.6116 193.477 58.085C193.117 58.5422 192.679 58.8897 192.163 59.1275C191.662 59.3351 191.109 59.298 190.505 59.0162C189.81 58.6922 189.364 58.1899 189.166 57.5093C188.969 56.8287 188.997 56.2166 189.25 55.6728L193.096 47.4254C193.138 47.3347 193.215 47.1313 193.326 46.8151C193.436 46.499 193.539 46.1606 193.633 45.8001C193.758 45.4537 193.856 45.205 193.926 45.054C194.039 44.8123 194.185 44.4206 194.364 43.8788C194.543 43.3371 194.647 42.7973 194.677 42.2597C194.708 41.722 194.541 41.3686 194.179 41.1996L193.771 41.0094C192.498 41.3722 191.466 41.8105 190.675 42.3243C189.898 42.8078 189.227 43.3406 188.661 43.9228C188.095 44.5049 187.524 45.1394 186.946 45.8263C186.382 46.4829 185.693 47.1728 184.877 47.896C184.3 48.5828 183.607 49.161 182.8 49.6304C182.037 50.0838 181.247 50.1202 180.431 49.7399C179.646 49.3736 179.14 48.8804 178.915 48.2602C178.733 47.6239 178.685 46.9393 178.769 46.2063C178.884 45.4873 179.014 44.8127 179.161 44.1823C179.228 43.8823 179.333 43.3798 179.478 42.6749C179.623 41.9701 179.781 41.1978 179.951 40.358C180.153 39.5323 180.333 38.7519 180.491 38.0169C180.664 37.2516 180.798 36.6887 180.893 36.3282C180.838 35.9718 180.72 35.7513 180.539 35.6668C180.267 35.54 179.889 35.6026 179.403 35.8544C178.918 36.1063 178.515 36.3783 178.195 36.6704C177.887 36.8577 177.405 37.2213 176.749 37.7612C176.107 38.2709 175.487 38.7725 174.889 39.266C174.321 39.7737 173.942 40.1121 173.753 40.2813C173.608 40.4344 173.223 40.7879 172.597 41.3419C172.001 41.9099 171.31 42.5626 170.525 43.2998C169.754 44.0069 169.048 44.6525 168.408 45.2367C167.768 45.8208 167.346 46.2126 167.143 46.4121C166.573 46.8452 166.009 47.2259 165.452 47.5543C164.924 47.8968 164.268 47.885 163.482 47.5187Z" fill="black"/>
<path d="M68.8936 242.729C68.2872 242.26 67.6089 241.693 66.8587 241.028C66.1145 240.41 65.525 239.702 65.0902 238.902C64.6554 238.102 64.5449 237.237 64.7588 236.306L65.9825 234.724C66.4312 234.144 66.8289 233.63 67.1756 233.182C67.5487 232.754 68.0123 232.291 68.5664 231.793L77.0406 220.838C77.1017 220.759 77.2559 220.478 77.5032 219.994C77.7972 219.505 78.0155 219.169 78.1583 218.984C78.4438 218.615 78.6634 218.195 78.8171 217.724C78.9972 217.273 79.2198 216.876 79.4849 216.534C79.5461 216.455 79.6115 216.315 79.6812 216.116C79.7976 215.912 79.8247 215.659 79.7625 215.358C79.3178 215.224 78.9462 215.105 78.6477 215.001C78.3696 214.87 78.0592 214.672 77.7164 214.407C77.2418 214.04 76.9172 213.452 76.7426 212.642C76.6147 211.827 76.7445 211.169 77.1321 210.668C77.8051 209.798 78.6122 209.326 79.5534 209.254C80.515 209.155 81.5064 209.29 82.5277 209.658C83.5957 210.021 84.6026 210.462 85.5483 210.983C86.5203 211.525 87.3431 212.013 88.0167 212.45C88.3595 212.715 88.8311 213.059 89.4315 213.481C90.0523 213.877 90.6234 214.256 91.1448 214.617C91.6925 214.999 91.9927 215.21 92.0454 215.251C93.8239 216.711 95.3487 218.417 96.6197 220.369C97.9112 222.295 98.8273 224.353 99.3681 226.541C99.9556 228.723 100.056 230.908 99.6705 233.096C99.3109 235.304 98.3765 237.384 96.8672 239.335C95.2764 241.392 93.3088 243.009 90.9643 244.188C88.6462 245.387 86.1515 246.133 83.4801 246.426C80.8352 246.74 78.2372 246.585 75.6862 245.96C73.1616 245.356 70.8974 244.279 68.8936 242.729ZM72.4281 237.751C73.7991 238.811 75.4149 239.556 77.2754 239.983C79.1623 240.431 81.0937 240.577 83.0696 240.42C85.0658 240.236 86.94 239.747 88.692 238.953C90.444 238.159 91.8605 237.064 92.9415 235.666C93.9816 234.322 94.5099 232.876 94.5262 231.329C94.5426 229.783 94.2053 228.257 93.5143 226.754C92.87 225.244 92.0141 223.844 90.9465 222.555C89.8993 221.239 88.8089 220.143 87.6752 219.266C87.5433 219.164 87.3851 219.042 87.2006 218.899C87.0628 218.75 86.8884 218.594 86.6775 218.431C86.4402 218.247 86.1957 218.1 85.944 217.99C85.6922 217.88 85.4393 217.852 85.1851 217.909C84.0917 220.139 82.9146 222.179 81.6536 224.027C80.4189 225.895 79.0572 227.792 77.5684 229.717C76.7526 230.771 75.8768 231.822 74.9411 232.868C74.0522 233.908 73.1591 235.008 72.2617 236.168L71.711 236.88C71.8463 237.195 72.0854 237.486 72.4281 237.751Z" fill="white"/>
<path d="M113.772 227.005C112.816 226.712 112.08 226.155 111.565 225.334C111.049 224.514 110.973 223.514 111.334 222.335C111.696 221.156 112.365 220.454 113.34 220.23C114.315 220.007 115.233 220.027 116.093 220.291C117.081 220.594 117.817 221.151 118.3 221.962C118.816 222.782 118.887 223.798 118.516 225.009C118.164 226.156 117.5 226.842 116.525 227.065C115.582 227.299 114.664 227.279 113.772 227.005ZM103.045 255.147C102.44 254.961 102.075 254.5 101.952 253.765C101.829 253.03 101.786 252.319 101.822 251.633L103.714 245.467C103.763 245.308 103.922 244.903 104.191 244.253C104.501 243.582 104.846 242.798 105.226 241.904C105.646 240.987 106.037 240.113 106.396 239.282C106.797 238.428 107.108 237.757 107.328 237.266C107.619 236.658 107.946 235.992 108.308 235.266C108.702 234.55 109.178 233.964 109.737 233.508C110.295 233.051 110.925 232.931 111.626 233.146C112.391 233.381 112.874 233.738 113.075 234.218C113.318 234.676 113.388 235.186 113.286 235.747C113.184 236.308 113.044 236.876 112.868 237.45L112.355 239.123C112.335 239.186 112.275 239.325 112.175 239.538C112.085 239.72 111.968 239.928 111.826 240.163C111.261 241.21 110.832 241.985 110.538 242.488C110.286 242.968 110.069 243.39 109.888 243.753C109.749 244.093 109.581 244.582 109.386 245.22C109.268 245.602 109.122 246.08 108.946 246.654C108.802 247.237 108.588 247.991 108.304 248.915C108.177 249.329 108.066 249.749 107.971 250.173C107.885 250.565 107.774 250.984 107.637 251.43C107.491 251.908 107.286 252.403 107.024 252.916C106.653 253.673 106.141 254.318 105.489 254.851C104.848 255.351 104.033 255.45 103.045 255.147Z" fill="white"/>
<path d="M131.68 262.821C130.147 262.848 128.708 262.522 127.363 261.845C126.017 261.168 124.885 260.254 123.965 259.103C123.044 257.919 122.438 256.579 122.146 255.084L122.102 252.534C122.07 250.668 122.371 248.779 123.005 246.868C123.639 244.957 124.558 243.191 125.764 241.57C126.969 239.916 128.413 238.591 130.096 237.595C131.779 236.566 133.637 236.034 135.67 235.999C136.503 235.985 137.222 236.122 137.827 236.412C138.466 236.701 139.038 237.008 139.543 237.333C140.082 237.623 140.601 237.798 141.103 237.856C141.346 236.485 141.697 235.579 142.156 235.137C142.615 234.663 143.244 234.419 144.044 234.405C145.01 234.388 145.666 234.694 146.01 235.321C146.387 235.915 146.583 236.678 146.599 237.611C146.631 239.444 146.612 241.245 146.542 243.013C146.506 244.781 146.503 246.598 146.536 248.464C146.561 249.931 146.67 251.446 146.864 253.009C147.057 254.573 147.167 256.088 147.192 257.554L147.21 258.604C147.222 259.337 147.084 260.023 146.795 260.661C146.539 261.266 145.927 261.577 144.961 261.593C144.061 261.609 143.406 261.353 142.997 260.827C142.621 260.266 142.36 259.604 142.213 258.84C142.099 258.042 141.987 257.327 141.876 256.695L141.673 256.499C140.559 257.651 139.56 258.702 138.677 259.651C137.826 260.599 136.872 261.365 135.816 261.95C134.758 262.502 133.38 262.792 131.68 262.821ZM131.093 257.781C132.26 257.761 133.354 257.392 134.375 256.674C135.429 255.923 136.363 254.973 137.176 253.826C137.989 252.645 138.618 251.417 139.063 250.143C139.508 248.868 139.721 247.681 139.702 246.581C139.688 245.748 139.557 244.917 139.309 244.088C139.061 243.225 138.649 242.499 138.072 241.909C137.528 241.318 136.756 241.031 135.757 241.048C134.657 241.067 133.58 241.469 132.527 242.254C131.507 243.038 130.591 244.037 129.778 245.251C128.965 246.432 128.319 247.677 127.842 248.985C127.364 250.26 127.133 251.414 127.151 252.448C127.165 253.281 127.296 254.112 127.544 254.941C127.825 255.77 128.254 256.463 128.83 257.019C129.406 257.543 130.16 257.797 131.093 257.781Z" fill="white"/>
<path d="M167.751 256.318C167.192 256.537 166.7 256.514 166.275 256.25C165.85 255.987 165.494 255.625 165.207 255.164C164.908 254.673 164.633 254.243 164.382 253.876L163.037 250.429C162.358 248.69 161.751 246.906 161.215 245.075C160.667 243.214 160.06 241.429 159.394 239.721C159.078 238.914 158.698 238.168 158.252 237.483C157.806 236.798 157.431 236.068 157.128 235.292L156.637 234.034C156.704 233.471 156.896 233.002 157.215 232.627C157.565 232.24 157.973 231.956 158.439 231.774C159.122 231.508 159.713 231.509 160.212 231.78C160.699 232.019 161.108 232.378 161.438 232.858C161.799 233.325 162.127 233.752 162.421 234.138C162.703 234.493 162.995 234.647 163.299 234.6C163.969 233.659 164.599 232.751 165.188 231.877C165.808 230.991 166.502 230.201 167.269 229.508C168.055 228.772 169.007 228.186 170.125 227.749C170.684 227.531 171.323 227.425 172.041 227.431C172.79 227.425 173.488 227.564 174.136 227.848C174.771 228.101 175.216 228.553 175.47 229.206C175.786 230.013 175.69 230.73 175.183 231.357C174.708 231.972 174.19 232.389 173.631 232.607C173.259 232.752 172.871 232.814 172.469 232.792C172.067 232.77 171.68 232.832 171.307 232.978C170.22 233.402 169.305 234.081 168.56 235.016C167.835 235.907 167.26 236.865 166.837 237.889C166.414 238.913 166.112 239.836 165.932 240.658C165.917 240.986 166.005 241.488 166.198 242.164C166.39 242.84 166.634 243.604 166.931 244.454C167.215 245.274 167.493 246.078 167.765 246.866C168.068 247.643 168.313 248.316 168.5 248.887C168.869 249.924 169.148 250.96 169.337 251.995C169.546 252.988 169.554 253.879 169.361 254.67C169.157 255.429 168.62 255.979 167.751 256.318Z" fill="white"/>
<path d="M207.664 242.026C207.211 242.419 206.675 242.488 206.055 242.232C205.457 242.001 204.972 241.672 204.6 241.245C203.9 240.44 203.409 239.519 203.127 238.484C202.867 237.473 202.558 236.483 202.2 235.513C202.042 235.076 201.821 234.517 201.538 233.836C201.302 233.158 201.042 232.478 200.759 231.797C200.501 231.094 200.271 230.499 200.068 230.012C199.866 229.525 199.743 229.257 199.699 229.207L199.601 229.093C198.13 230.196 196.656 230.837 195.178 231.017C193.701 231.197 192.27 231.05 190.885 230.575C189.501 230.101 188.178 229.418 186.917 228.526C185.634 227.61 184.429 226.604 183.3 225.509C182.197 224.392 181.197 223.318 180.3 222.287C180.016 221.96 179.657 221.521 179.222 220.971C178.766 220.396 178.348 219.788 177.968 219.147C177.612 218.484 177.396 217.855 177.32 217.259C177.268 216.641 177.482 216.124 177.96 215.709C178.891 214.899 179.79 214.714 180.657 215.153C181.549 215.569 182.345 216.18 183.045 216.985C183.526 217.539 183.937 218.087 184.277 218.631C184.642 219.152 185.076 219.703 185.579 220.281L185.907 220.658C186.06 220.835 186.426 221.179 187.005 221.692C187.583 222.205 188.173 222.731 188.773 223.269C189.398 223.785 189.868 224.172 190.18 224.43C191.028 225.151 191.914 225.662 192.838 225.963C193.74 226.238 194.531 226.081 195.21 225.49C196.015 224.791 196.446 223.864 196.503 222.71C196.585 221.534 196.427 220.236 196.031 218.814C195.659 217.37 195.218 215.898 194.709 214.398C194.177 212.872 193.701 211.409 193.279 210.009C192.857 208.61 192.637 207.365 192.618 206.277C192.625 205.167 192.968 204.317 193.647 203.727C194.779 202.742 195.892 202.879 196.985 204.137C197.729 204.992 198.301 205.93 198.702 206.95C199.129 207.949 199.458 208.988 199.69 210.067C199.947 211.125 200.167 212.192 200.352 213.268C200.537 214.344 200.783 215.389 201.09 216.403C201.943 219.416 202.926 222.426 204.039 225.434C205.155 228.394 206.307 231.346 207.496 234.288C207.798 235.041 208.104 235.901 208.414 236.868C208.725 237.835 208.86 238.778 208.819 239.696C208.804 240.593 208.419 241.37 207.664 242.026Z" fill="white"/>
</svg>
